<svg xmlns="http://www.w3.org/2000/svg" width="1811" height="1038" viewBox="0 0 1811 1038" fill="none">
    <path d="M1810.26 942.891C1810.26 943.279 1405.15 943.594 905.547 943.594C405.766 943.594 0.74707 943.279 0.74707 942.891C0.74707 942.504 405.766 942.189 905.547 942.189C1405.15 942.189 1810.26 942.504 1810.26 942.891Z"
          fill="#263138"/>
    <path d="M1573.29 933.305H241.661C219.979 933.305 202.402 915.729 202.402 894.046V21.6792C202.402 10.1426 211.755 0.790527 223.291 0.790527H1594.38C1604.42 0.790527 1612.55 8.92256 1612.55 18.9542V894.046C1612.55 915.729 1594.97 933.305 1573.29 933.305Z"
          fill="#445964"/>
    <path d="M1634.24 945.931H180.411C159.989 945.931 143.433 929.375 143.433 908.952V864.338H1671.22V908.952C1671.22 929.375 1654.66 945.931 1634.24 945.931Z"
          fill="#445964"/>
    <path d="M1570.75 825.333H240.255V37.8408H1570.75V825.333Z" fill="#F4F4F4"/>
    <path d="M768.465 864.338L787.423 894.494H1054.19L1071.8 864.338H768.465Z" fill="#263138"/>
    <path d="M1612.78 868.557H202.63V864.061H1612.78V868.557Z" fill="#263138"/>
    <path d="M570.835 194.849C590.477 197.393 593.4 217.546 600.677 234.425C607.953 251.303 621.883 266.365 632.591 281.484C638.255 289.478 645.972 296.655 648.017 306.144C650.156 316.071 645.632 326.332 643.504 336.448C641.377 346.566 642.86 358.918 652.564 363.379C650.477 365.89 646.988 367.361 643.667 367.131C643.74 371.787 639.174 375.821 634.278 377.149C629.381 378.476 624.247 377.745 619.313 377.004C620.637 380.1 617.826 383.828 614.352 385.052C610.879 386.276 607.084 385.68 603.55 384.956C600.014 384.231 596.35 383.392 592.751 384.175C584.766 385.913 579.938 394.916 571.861 396.081C560.769 397.68 552.77 383.488 541.824 385.966C536.674 387.133 533.231 391.631 529.004 394.695C524.777 397.759 517.645 396.977 515.642 392.582C509.769 399.987 500.676 407.164 491.113 409.138C492.508 405.837 491.762 401.931 489.259 399.433C484.121 403.656 477.679 406.483 471.005 407.443C475.145 403.598 477.433 398.116 477.101 392.843C472.71 396.373 466.43 397.726 461.038 396.305C470.918 390.691 471.883 377.573 468.379 367.746C464.875 357.918 458.195 349.096 456.884 338.729C455.458 327.445 468.732 313.16 466.137 302.072C462.141 284.992 462.458 274.584 463.146 258.642C463.598 248.203 468.202 238.939 472.79 229.209C478.591 216.906 486.494 207.913 498.931 200.899C509.358 195.02 524.393 189.633 536.351 189.372C557.62 188.907 566.293 188.235 583.136 199.501L570.835 194.849Z"
          fill="#263138"/>
    <path d="M505.229 333.984C498.62 320.23 492.056 306.359 487.912 291.673C483.77 276.986 482.127 261.317 485.489 246.432C485.999 244.176 490.871 228.844 493.184 228.762C494.836 228.704 492.448 242.717 493.463 244.022C503.149 256.479 507.473 272.444 508.311 288.201C509.15 303.958 507.792 318.415 505.229 333.984Z"
          fill="#263138"/>
    <path d="M598.315 463.071C574.805 465.729 518.207 441.033 515.04 417.587L495.983 276.483C489.656 238.739 506.348 203.597 544.253 198.317L547.785 198.034C583.334 195.179 615.108 220.104 620.807 255.309C626.107 288.048 631.543 324.281 632.744 341.975C635.227 378.616 599.073 387.246 599.073 387.246C598.992 387.256 600.003 395.706 601.328 406.401C604.301 430.427 600.489 456.777 598.315 463.071Z"
          fill="#FFBD9C"/>
    <path d="M599.072 387.246C599.072 387.246 576.109 390.45 550.282 376.979C550.282 376.979 563.955 403.578 600.216 397.352L599.072 387.246Z"
          fill="#EB996E"/>
    <path d="M607.174 287.16C607.494 289.912 605.425 292.453 602.556 292.838C599.693 293.223 597.109 291.31 596.79 288.557C596.471 285.804 598.538 283.261 601.401 282.876C604.269 282.49 606.855 284.407 607.174 287.16Z"
          fill="#263138"/>
    <path d="M614.316 272.073C613.723 272.805 609.528 270.193 603.903 270.659C598.279 271.044 594.382 274.269 593.718 273.629C593.393 273.348 593.955 272.065 595.647 270.611C597.313 269.167 600.229 267.656 603.734 267.391C607.239 267.13 610.291 268.182 612.09 269.366C613.926 270.556 614.612 271.741 614.316 272.073Z"
          fill="#263138"/>
    <path d="M554.291 291.301C554.611 294.053 552.542 296.592 549.673 296.978C546.811 297.364 544.226 295.451 543.907 292.697C543.589 289.945 545.657 287.402 548.52 287.016C551.387 286.629 553.972 288.548 554.291 291.301Z"
          fill="#263138"/>
    <path d="M559.281 277.8C558.687 278.533 554.486 275.922 548.866 276.387C543.243 276.772 539.346 279.998 538.68 279.357C538.357 279.075 538.912 277.794 540.611 276.341C542.276 274.895 545.192 273.386 548.697 273.119C552.202 272.858 555.253 273.911 557.054 275.094C558.885 276.284 559.574 277.47 559.281 277.8Z"
          fill="#263138"/>
    <path d="M582.927 319.404C582.875 319.087 586.323 318.202 591.931 317.023C593.355 316.76 594.692 316.365 594.856 315.365C595.11 314.301 594.385 312.8 593.555 311.184C591.926 307.817 590.22 304.287 588.43 300.587C581.281 285.488 575.984 273.027 576.594 272.743C577.206 272.461 583.495 284.47 590.643 299.57C592.371 303.297 594.023 306.848 595.594 310.246C596.268 311.836 597.352 313.612 596.792 315.824C596.491 316.929 595.499 317.792 594.599 318.113C593.701 318.468 592.893 318.55 592.186 318.649C586.509 319.413 582.975 319.722 582.927 319.404Z"
          fill="#263138"/>
    <path d="M557.092 256.815C556.443 258.313 550.864 257.242 544.207 257.632C537.541 257.889 532.093 259.495 531.301 258.069C530.95 257.387 531.968 256.003 534.214 254.653C536.44 253.304 539.934 252.107 543.929 251.909C547.922 251.719 551.516 252.572 553.863 253.699C556.229 254.825 557.376 256.103 557.092 256.815Z"
          fill="#263138"/>
    <path d="M611.932 259.026C610.885 260.414 606.185 259.524 600.679 259.986C595.16 260.285 590.602 261.812 589.404 260.579C588.873 259.976 589.483 258.629 591.403 257.227C593.294 255.832 596.555 254.529 600.343 254.265C604.133 254.006 607.518 254.851 609.556 255.975C611.624 257.101 612.387 258.355 611.932 259.026Z"
          fill="#263138"/>
    <path d="M501.147 303.348C500.5 303.128 475.399 297.927 478.205 322.888C481.013 347.849 505.493 339.882 505.456 339.161C505.418 338.44 501.147 303.348 501.147 303.348Z"
          fill="#FFBD9C"/>
    <path d="M496.768 330.562C496.65 330.494 496.367 330.915 495.67 331.335C494.991 331.743 493.783 332.108 492.428 331.767C489.681 331.096 486.99 327.159 486.363 322.674C486.044 320.41 486.278 318.193 486.88 316.311C487.438 314.4 488.475 312.991 489.776 312.605C491.063 312.151 492.092 312.84 492.476 313.509C492.889 314.169 492.787 314.686 492.924 314.713C493.001 314.768 493.413 314.235 493.095 313.226C492.937 312.742 492.578 312.186 491.937 311.773C491.284 311.353 490.375 311.203 489.462 311.408C487.552 311.757 486.018 313.723 485.354 315.788C484.585 317.875 484.271 320.373 484.629 322.915C485.355 327.927 488.459 332.345 492.184 332.981C493.992 333.243 495.397 332.548 496.087 331.874C496.791 331.169 496.859 330.598 496.768 330.562Z"
          fill="#EB996E"/>
    <path d="M599.656 215.934C603.422 213.217 589.724 201.619 579.261 198.322C563.447 193.342 540.05 191.933 526.707 197.529C510.641 204.267 497.822 214.224 491.307 230.382C484.792 246.539 483.794 264.565 486.378 281.794C487.165 287.052 488.381 292.483 491.74 296.602C495.892 301.692 502.996 304.354 503.626 311.994C503.857 314.785 504.99 317.495 507.141 319.29C512.292 323.591 517.319 318.353 519.33 313.47C523.626 303.037 522.821 291.304 521.945 280.055C521.321 272.061 520.658 263.899 517.489 256.533C515.764 252.525 513.328 248.836 511.828 244.738C510.328 240.64 509.875 235.838 512.084 232.074C512.443 231.462 513.062 230.671 513.86 229.78C520.17 222.733 529.831 219.681 539.063 221.737C553.708 225.001 578.588 229.508 584.272 223.984C592.45 216.034 594.063 211.302 594.063 211.302L599.656 215.934Z"
          fill="#263138"/>
    <path d="M567.902 324.288C567.569 324.379 567.532 325.761 568.275 327.858C568.974 329.933 570.799 332.731 573.669 334.631C576.498 336.566 579.394 337.462 581.456 337.955C583.536 338.435 584.868 338.492 584.979 338.152C585.096 337.799 583.95 337.107 582.082 336.194C580.223 335.272 577.624 334.145 575.17 332.456C570.159 329.177 568.684 324.014 567.902 324.288Z"
          fill="#263138"/>
    <path d="M501.955 306.6C502.159 307.037 502.363 307.496 502.568 308C502.568 308 502.338 307.502 501.955 306.6Z"
          fill="#FF725D"/>
    <path d="M493.402 302.769C493.402 302.769 497.593 297.251 501.955 306.599C496.754 294.356 462.168 205.889 556.986 194.219C556.986 194.219 522.74 188.174 502.078 205.209C502.078 205.209 460.11 230.316 493.402 302.769Z"
          fill="#445964"/>
    <path d="M674.71 749.423L454.33 752.426C454.33 752.426 392.699 726.637 375.767 725.943C358.837 725.248 325.226 727.401 309.679 752.426C293.61 778.289 291.364 823.922 340.886 857.082C389.11 889.374 609.639 919.215 639.871 916.469L695.595 841.669C695.595 841.669 696.18 780.366 695.595 777.447C695.011 774.528 685.67 748.255 685.67 748.255L674.71 749.423Z"
          fill="#263138"/>
    <path d="M542.784 852.908L428.601 895.321L480.642 1037.65C493.933 1031.85 494.308 948.233 494.308 948.233L568.582 924.06L542.784 852.908Z"
          fill="#63E2DB"/>
    <path d="M484.383 901.967C482.622 899.489 478.829 898.717 476.28 900.374C473.731 902.03 472.913 905.88 474.629 908.391C476.346 910.901 480.872 911.965 483.219 910.034C485.568 908.102 486.28 903.528 484.012 901.503L484.383 901.967Z"
          fill="white" fill-opacity="0.6"/>
    <path d="M428.601 895.321L440.126 891.041L485.808 1029.39C485.808 1029.39 485.368 1036.74 480.642 1037.65L428.601 895.321Z"
          fill="#263138"/>
    <path d="M495.875 950.275C495.172 950.506 493.586 947.147 490.1 944.544C486.684 941.85 483.029 941.188 483.071 940.448C482.972 939.758 487.505 939.275 491.67 942.5C495.861 945.688 496.568 950.192 495.875 950.275Z"
          fill="#263138"/>
    <path d="M495.158 967.46C494.544 967.866 492.262 965.288 488.459 964.003C484.694 962.605 481.298 963.172 481.075 962.469C480.727 961.856 484.622 959.886 489.32 961.575C494.03 963.222 495.816 967.204 495.158 967.46Z"
          fill="#263138"/>
    <path d="M480.393 982.473C480.013 981.895 483.133 979.659 487.591 980.052C492.054 980.413 494.753 983.141 494.281 983.647C493.853 984.249 491.04 982.885 487.374 982.618C483.716 982.266 480.713 983.138 480.393 982.473Z"
          fill="#263138"/>
    <path d="M512.191 942.888C511.451 942.828 511.244 939.289 509.541 935.459C507.915 931.593 505.479 929.018 505.942 928.438C506.298 927.853 509.961 929.897 511.905 934.437C513.881 938.96 512.861 943.031 512.191 942.888Z"
          fill="#263138"/>
    <path d="M527.839 933.324C527.555 933.437 526.121 930.848 525.269 926.181C524.849 923.86 524.622 921.025 524.833 917.887C524.94 916.319 525.156 914.678 525.508 912.999C525.691 912.19 525.83 911.256 526.398 910.234C526.842 909.199 528.525 908.087 529.978 908.564C531.339 908.893 532.282 910.009 532.681 911.028C533.099 912.065 533.198 912.992 533.289 913.836C533.485 915.562 533.502 917.24 533.39 918.824C533.146 921.995 532.39 924.777 531.478 926.974C529.628 931.394 527.444 933.471 527.223 933.282C526.878 933.051 528.467 930.649 529.762 926.366C530.405 924.23 530.921 921.615 531.02 918.698C531.06 917.24 530.996 915.709 530.784 914.144C530.63 912.492 530.171 911.205 529.359 911.064C529.052 911.017 528.944 911.036 528.619 911.513C528.33 911.987 528.155 912.743 527.973 913.543C527.612 915.102 527.362 916.629 527.198 918.095C526.874 921.028 526.901 923.71 527.076 925.952C527.429 930.445 528.219 933.198 527.839 933.324Z"
          fill="#263138"/>
    <path d="M526.512 932.783C526.314 932.575 528.301 930.286 532.709 928.385C534.899 927.451 537.689 926.693 540.869 926.503C542.458 926.419 544.138 926.48 545.861 926.737C547.572 927.058 549.827 927.387 551.123 929.969C551.69 931.358 551.018 932.93 550.223 933.673C549.432 934.495 548.64 934.891 547.877 935.36C546.31 936.229 544.669 936.794 543.078 937.12C539.885 937.78 536.911 937.461 534.601 936.768C529.896 935.336 528.005 932.738 528.22 932.594C528.484 932.234 530.712 934.167 535.033 934.999C537.164 935.409 539.81 935.499 542.555 934.805C543.926 934.462 545.316 933.931 546.627 933.167C548.059 932.392 549.071 931.378 548.71 930.869C548.462 930.157 546.882 929.371 545.464 929.229C543.92 928.965 542.401 928.86 540.954 928.876C538.055 928.925 535.45 929.436 533.336 930.096C529.087 931.429 526.756 933.122 526.512 932.783Z"
          fill="#263138"/>
    <path d="M636.972 835.321L747.47 886.575L684.407 1024.38C671.612 1017.55 677.809 934.16 677.809 934.16L605.663 904.227L636.972 835.321Z"
          fill="#63E2DB"/>
    <path d="M691.337 888.817C693.287 886.485 697.129 886.014 699.541 887.866C701.953 889.717 702.464 893.62 700.556 895.987C698.647 898.354 694.052 899.06 691.864 896.951C689.675 894.839 689.324 890.224 691.745 888.384L691.337 888.817Z"
          fill="white" fill-opacity="0.6"/>
    <path d="M747.47 886.575L736.317 881.401L679.906 1015.73C679.906 1015.73 679.767 1023.09 684.406 1024.38L747.47 886.575Z"
          fill="#263138"/>
    <path d="M676.085 936.072C676.767 936.358 678.613 933.133 682.292 930.813C685.91 928.395 689.605 928.023 689.622 927.281C689.775 926.601 685.293 925.764 680.889 928.652C676.459 931.5 675.401 935.935 676.085 936.072Z"
          fill="#263138"/>
    <path d="M675.449 953.262C676.03 953.714 678.508 951.323 682.4 950.341C686.262 949.244 689.604 950.075 689.881 949.392C690.277 948.807 686.548 946.539 681.732 947.853C676.907 949.124 674.814 952.954 675.449 953.262Z"
          fill="#263138"/>
    <path d="M688.99 969.387C689.414 968.841 686.479 966.366 682.004 966.408C677.526 966.417 674.622 968.925 675.052 969.466C675.431 970.1 678.344 968.961 682.019 968.983C685.693 968.92 688.618 970.025 688.99 969.387Z"
          fill="#263138"/>
    <path d="M660.399 927.427C661.142 927.425 661.626 923.914 663.626 920.228C665.55 916.503 668.181 914.127 667.764 913.513C667.456 912.901 663.643 914.65 661.349 919.024C659.023 923.378 659.72 927.516 660.399 927.427Z"
          fill="#263138"/>
    <path d="M645.552 916.662C645.826 916.797 647.46 914.329 648.675 909.744C649.277 907.462 649.725 904.654 649.761 901.509C649.778 899.938 649.691 898.285 649.473 896.583C649.354 895.762 649.288 894.821 648.802 893.757C648.441 892.691 646.851 891.45 645.364 891.81C643.982 892.031 642.954 893.071 642.477 894.054C641.978 895.055 641.806 895.972 641.649 896.806C641.319 898.511 641.17 900.183 641.157 901.771C641.15 904.952 641.686 907.784 642.423 910.047C643.92 914.598 645.934 916.839 646.169 916.669C646.531 916.465 645.137 913.947 644.182 909.574C643.708 907.395 643.399 904.747 643.53 901.832C643.604 900.375 643.789 898.855 644.122 897.311C644.406 895.675 644.965 894.429 645.785 894.352C646.095 894.33 646.201 894.357 646.488 894.858C646.738 895.353 646.853 896.121 646.972 896.932C647.209 898.514 647.339 900.057 647.388 901.53C647.48 904.481 647.243 907.151 646.891 909.373C646.186 913.824 645.182 916.507 645.552 916.662Z"
          fill="#263138"/>
    <path d="M646.918 916.228C647.131 916.037 645.33 913.598 641.085 911.356C638.976 910.253 636.254 909.278 633.098 908.84C631.522 908.63 629.841 908.559 628.105 908.681C626.373 908.865 624.099 909.016 622.604 911.489C621.93 912.829 622.476 914.449 623.21 915.251C623.934 916.134 624.693 916.59 625.416 917.118C626.911 918.108 628.502 918.799 630.062 919.25C633.194 920.159 636.183 920.075 638.541 919.565C643.344 918.507 645.433 916.067 645.23 915.905C644.995 915.526 642.623 917.278 638.25 917.768C636.093 918.008 633.447 917.891 630.765 916.982C629.426 916.533 628.082 915.895 626.835 915.031C625.469 914.145 624.539 913.055 624.94 912.575C625.242 911.886 626.879 911.225 628.305 911.196C629.864 911.054 631.386 911.069 632.828 911.198C635.714 911.474 638.27 912.188 640.326 913.014C644.457 914.675 646.648 916.547 646.918 916.228Z"
          fill="#263138"/>
    <path d="M685.67 748.255C685.67 748.255 780.837 712.713 815.866 717.312C835.454 719.884 866.076 734.828 868.411 759.932C870.746 785.037 864.619 818.62 830.757 834.967C796.895 851.314 661.743 911.965 629.632 921.306C597.521 930.647 517.459 952.522 517.459 952.522L487.041 865.843C487.041 865.843 652.975 808.391 661.733 801.968C670.491 795.546 692.676 786.788 692.676 786.788L685.67 748.255Z"
          fill="#263138"/>
    <path d="M354.849 760.042C354.855 760.059 355.079 760 355.51 759.87C355.992 759.724 356.623 759.532 357.42 759.29C359.101 758.785 361.584 758.058 364.823 757.287C368.062 756.528 372.058 755.667 376.753 755.212C381.448 754.747 386.846 754.724 392.765 755.232C398.677 755.752 405.138 756.821 411.81 758.862C415.14 759.885 418.535 761.131 421.854 762.782C425.214 764.421 428.67 766.108 432.215 767.837C446.451 774.642 462.35 781.609 479.286 788.299C513.197 801.886 545.749 808.333 568.955 813.606C580.6 816.183 590.013 818.302 596.5 819.845C599.696 820.602 602.202 821.195 603.973 821.615C604.786 821.799 605.43 821.944 605.921 822.055C606.361 822.149 606.59 822.188 606.594 822.171C606.598 822.154 606.379 822.081 605.947 821.953C605.462 821.817 604.827 821.639 604.024 821.415C602.327 820.96 599.831 820.264 596.595 819.457C590.134 817.794 580.74 815.565 569.115 812.898C545.937 807.441 513.472 800.891 479.663 787.344C462.749 780.662 446.861 773.732 432.621 766.983C429.075 765.269 425.615 763.596 422.254 761.972C418.872 760.309 415.429 759.064 412.057 758.047C405.302 756.021 398.786 754.987 392.826 754.509C386.859 754.043 381.423 754.117 376.695 754.641C371.959 755.156 367.963 756.077 364.728 756.899C361.492 757.732 359.02 758.523 357.357 759.093C356.571 759.376 355.95 759.6 355.476 759.771C355.056 759.934 354.843 760.025 354.849 760.042Z"
          fill="#445964"/>
    <path d="M359.855 747.496C359.887 747.661 362.752 747.143 367.412 746.641C372.07 746.134 378.543 745.753 385.678 746.112C392.816 746.487 399.217 747.529 403.798 748.511C408.382 749.488 411.177 750.297 411.228 750.136C411.248 750.069 410.571 749.798 409.324 749.368C408.08 748.927 406.248 748.385 403.961 747.804C399.392 746.633 392.94 745.464 385.731 745.086C378.524 744.723 371.987 745.225 367.322 745.921C364.987 746.265 363.109 746.616 361.827 746.927C360.543 747.228 359.84 747.426 359.855 747.496Z"
          fill="#445964"/>
    <path d="M725.703 773.427C725.815 773.571 728.451 771.527 733.011 768.703C737.562 765.874 744.139 762.402 751.846 759.67C759.565 756.958 766.864 755.534 772.183 754.88C777.506 754.217 780.84 754.153 780.836 753.972C780.836 753.901 780.003 753.86 778.493 753.849C776.982 753.82 774.795 753.916 772.104 754.158C766.724 754.632 759.31 755.959 751.505 758.702C743.709 761.464 737.106 765.083 732.62 768.091C730.373 769.592 728.609 770.89 727.452 771.86C726.283 772.818 725.66 773.372 725.703 773.427Z"
          fill="#445964"/>
    <path d="M677.948 902.705C677.948 902.705 677.691 902.789 677.205 902.989C676.693 903.203 675.977 903.504 675.044 903.895C673.127 904.668 670.359 905.984 666.635 907.411C659.225 910.354 648.269 914.383 634.222 919.004C606.111 928.19 565.7 939.893 517.348 952.071L517.896 952.364C508.883 927.347 498.938 899.742 488.475 870.701L488.19 871.343C499.86 866.553 512.145 861.51 524.625 856.387C604.937 823.334 677.113 793.629 726.228 773.415L726.297 773.387L726.346 773.334C734.552 764.646 742.102 756.994 749.18 750.815C756.258 744.642 762.767 739.873 768.321 736.391C773.846 732.855 778.406 730.625 781.454 729.066C782.987 728.35 784.161 727.804 784.981 727.42C785.773 727.045 786.167 726.831 786.167 726.831C786.167 726.831 785.747 726.985 784.942 727.33C784.111 727.694 782.923 728.213 781.371 728.891C778.292 730.397 773.693 732.577 768.122 736.074C762.522 739.516 755.959 744.255 748.826 750.408C741.694 756.564 734.088 764.203 725.849 772.859L725.968 772.779C676.821 792.917 604.598 822.509 524.235 855.437C511.755 860.564 499.473 865.609 487.804 870.402L487.353 870.588L487.518 871.046C498.011 900.076 507.984 927.671 517.024 952.679L517.167 953.074L517.572 952.971C565.93 940.706 606.315 928.875 634.396 919.531C648.427 914.831 659.364 910.715 666.746 907.684C670.455 906.212 673.208 904.85 675.106 904.032C676.026 903.611 676.732 903.288 677.237 903.058C677.713 902.835 677.948 902.705 677.948 902.705Z"
          fill="#445964"/>
    <path d="M442.728 444.962C442.728 444.962 415.328 460.747 409.775 479.294C406.403 490.554 380.841 634.611 376.799 663.018C372.716 691.698 381.286 712.468 393.399 721.889C405.513 731.311 442.236 743.865 442.236 743.865L493.897 760.599L508.702 722.913L459.525 652.267L464.283 604.678L442.728 444.962Z"
          fill="#63E2DB"/>
    <path d="M496.588 420.073L513.673 407.47C513.673 407.47 535.937 430.254 561.51 427.562C587.083 424.87 602.23 405.298 602.23 405.298L678.493 420.828C683.609 421.854 692.942 425.086 701.866 437.835C711.822 452.06 759.011 515.138 759.011 515.138H792.062C801.172 515.138 809.538 520.174 813.775 528.239C819.418 538.979 826.191 553.344 825.529 559.297C824.411 569.358 826.351 596.987 812.856 605.612C808.577 608.347 793.263 616.554 781.381 615.995C763.848 615.169 743.484 606.038 731.751 597.834C721.817 590.887 698.709 566.872 689.821 557.499L689.832 557.645L684.126 757.714L484.167 752.019L442.728 444.962C442.728 444.962 494.569 420.073 496.588 420.073Z"
          fill="#63E2DB"/>
    <path d="M690.531 473.68C690.247 473.677 689.725 498.476 689.364 529.062C689.003 559.66 688.941 584.458 689.225 584.461C689.508 584.465 690.03 559.672 690.391 529.074C690.751 498.488 690.814 473.683 690.531 473.68Z"
          fill="#263138"/>
    <path d="M418.518 635.412C418.507 635.515 420.214 635.683 423.236 636.259C426.262 636.812 430.578 638.009 435.617 640.202C440.665 642.374 446.321 645.752 452.102 650.159C457.88 654.58 463.734 660.073 469.469 666.22C475.193 672.392 480.409 678.505 485.318 683.927C490.219 689.356 494.816 694.097 498.939 697.802C503.053 701.514 506.61 704.262 509.178 705.994C510.433 706.9 511.485 707.491 512.17 707.932C512.866 708.357 513.239 708.565 513.258 708.535C513.276 708.505 512.94 708.238 512.284 707.758C511.637 707.263 510.625 706.621 509.41 705.67C506.925 703.845 503.459 701.027 499.431 697.267C495.394 693.515 490.874 688.747 486.022 683.295C481.162 677.85 475.967 671.717 470.221 665.521C464.456 659.342 458.538 653.826 452.675 649.406C446.808 644.998 441.047 641.647 435.904 639.535C430.771 637.401 426.376 636.302 423.306 635.866C421.784 635.564 420.568 635.556 419.76 635.459C418.948 635.394 418.521 635.377 418.518 635.412Z"
          fill="#263138"/>
    <path d="M413.992 621.861C413.965 622.047 417.018 622.466 421.784 623.787C426.545 625.096 432.982 627.499 439.464 631.346C445.937 635.216 451.115 639.733 454.534 643.296C457.964 646.857 459.786 649.342 459.937 649.229C459.994 649.187 459.58 648.539 458.777 647.397C457.992 646.242 456.729 644.662 455.064 642.8C451.747 639.071 446.56 634.392 439.99 630.464C433.41 626.558 426.825 624.225 421.967 623.084C419.538 622.507 417.545 622.148 416.157 622.007C414.77 621.846 414.003 621.791 413.992 621.861Z"
          fill="#263138"/>
    <path d="M786.151 586.744C775.568 589.628 762.854 574.398 753.241 564.868C748.241 559.91 743.041 554.621 741.199 547.824C739.677 542.209 740.671 536.15 742.861 530.761C745.051 525.372 746.601 521.88 749.9 517.088C749.012 525.305 746.991 537.897 749.755 548.225C752.061 556.839 757.52 563.694 763.309 570.195C769.436 577.074 776.681 584.297 786.151 586.744Z"
          fill="black" fill-opacity="0.301961"/>
    <path d="M740.899 578.03C741.097 577.967 739.87 574.541 738.878 568.802C738.362 565.937 738.022 562.483 737.907 558.643C737.861 554.801 738.078 550.573 738.746 546.188C739.462 541.81 740.558 537.72 741.786 534.079C743.08 530.462 744.468 527.279 745.842 524.713C748.554 519.559 750.776 516.679 750.607 516.558C750.55 516.514 749.975 517.214 748.979 518.523C748.471 519.17 747.876 519.981 747.264 520.976C746.642 521.964 745.878 523.059 745.202 524.368C743.731 526.918 742.255 530.112 740.895 533.763C739.598 537.437 738.457 541.584 737.731 546.029C737.053 550.479 736.861 554.774 736.961 558.669C737.13 562.562 737.55 566.054 738.164 568.934C738.403 570.387 738.793 571.664 739.08 572.796C739.355 573.931 739.672 574.886 739.956 575.658C740.5 577.209 740.831 578.053 740.899 578.03Z"
          fill="#263138"/>
    <path d="M593.9 413.028C593.764 413.295 596.107 414.658 598.559 416.86C601.03 419.041 602.654 421.21 602.905 421.043C603.138 420.913 601.834 418.386 599.242 416.093C596.664 413.785 594.002 412.781 593.9 413.028Z"
          fill="#263138"/>
    <path d="M573.092 425.116C572.876 425.332 574.89 427.493 576.508 430.683C578.16 433.856 578.744 436.751 579.046 436.701C579.308 436.69 579.162 433.571 577.421 430.214C575.705 426.846 573.253 424.909 573.092 425.116Z"
          fill="#263138"/>
    <path d="M537.466 437.66C537.753 437.722 538.563 434.985 539.756 431.695C540.936 428.4 542.057 425.775 541.796 425.64C541.555 425.509 539.998 427.977 538.79 431.348C537.572 434.713 537.197 437.607 537.466 437.66Z"
          fill="#263138"/>
    <path d="M514.542 426.824C514.847 426.891 515.628 423.402 517.885 419.719C520.102 416.009 522.83 413.698 522.629 413.46C522.501 413.237 519.344 415.288 517.007 419.188C514.638 423.064 514.285 426.813 514.542 426.824Z"
          fill="#263138"/>
    <path d="M448.704 491.612C448.423 491.65 451.808 518.978 456.264 552.643C460.721 586.32 464.561 613.582 464.842 613.545C465.124 613.508 461.739 586.186 457.282 552.509C452.826 518.843 448.985 491.575 448.704 491.612Z"
          fill="#263138"/>
    <path d="M748.353 535.861C748.283 535.864 748.308 536.865 748.414 538.685C748.43 539.6 748.592 540.701 748.822 541.976C748.932 542.623 749.048 543.305 749.169 544.022C749.321 544.739 749.54 545.484 749.74 546.274C750.479 549.457 751.907 553.086 753.68 557.013C755.61 560.866 757.987 564.991 761.026 568.944C764.104 572.86 767.426 576.287 770.793 579.003C774.226 581.617 777.537 583.739 780.6 584.917C781.355 585.228 782.064 585.555 782.755 585.805C783.457 586 784.125 586.186 784.761 586.363C785.376 586.53 785.957 586.688 786.505 586.837C787.046 586.956 787.559 586.982 788.01 587.046C789.824 587.26 790.821 587.341 790.826 587.271C790.877 586.992 786.754 586.917 780.892 584.252C777.928 583.017 774.725 580.87 771.388 578.267C768.115 575.56 764.872 572.174 761.84 568.317C758.847 564.425 756.482 560.376 754.531 556.599C752.738 552.749 751.256 549.197 750.44 546.082C748.642 539.891 748.586 535.84 748.353 535.861Z"
          fill="#263138"/>
    <path d="M455.138 764.559C446.661 760.458 444.731 749.461 443.867 740.084C441.332 712.601 438.797 685.118 436.263 657.634C435.071 644.713 434.491 629.961 443.604 620.723C451.927 612.286 465.15 611.78 477 611.814C550.173 612.026 614.791 614.163 687.963 614.374L684.235 742.372L455.138 764.559Z"
          fill="black" fill-opacity="0.301961"/>
    <path d="M719.498 634.203L711.707 782.655C711.406 788.378 706.624 792.864 700.826 792.861L464.35 793.274C458.541 793.271 453.753 788.762 453.47 783.027L444.446 637.095C444.147 631.035 448.46 622.972 454.597 622.852L708.4 622.875C714.723 622.751 719.826 627.959 719.498 634.203Z"
          fill="#DFDFDF"/>
    <path d="M719.498 634.203C719.498 634.203 719.515 634.016 719.524 633.646C719.552 633.275 719.519 632.723 719.436 631.993C719.225 630.572 718.611 628.331 716.633 626.21C715.65 625.169 714.34 624.162 712.677 623.519C711.032 622.82 709.031 622.667 706.963 622.723C702.796 622.709 697.992 622.693 692.586 622.674C670.93 622.634 639.632 622.575 600.961 622.503C562.272 622.467 516.214 622.426 465.073 622.38C461.876 622.378 458.66 622.376 455.424 622.374C453.809 622.302 451.963 622.697 450.537 623.622C449.074 624.518 447.883 625.776 446.928 627.165C445.048 629.964 443.937 633.294 443.958 636.74C444.155 640.049 444.351 643.377 444.549 646.723C445.372 660.083 446.211 673.725 447.065 687.612C448.779 715.388 450.554 744.145 452.372 773.598L452.713 779.115C452.868 780.966 452.842 782.742 453.168 784.673C453.87 788.479 456.72 791.719 460.299 793.042C462.066 793.749 464.082 793.845 465.852 793.783L471.29 793.773C474.909 793.767 478.516 793.761 482.109 793.753C496.484 793.726 510.647 793.699 524.565 793.672C552.399 793.613 579.247 793.556 604.823 793.501C630.399 793.44 654.703 793.382 677.448 793.328C683.135 793.313 688.724 793.298 694.211 793.284C695.582 793.281 696.948 793.277 698.307 793.273C699.663 793.249 701.009 793.33 702.413 793.143C705.182 792.767 707.752 791.326 709.504 789.225C711.291 787.151 712.167 784.364 712.143 781.754C712.275 779.172 712.407 776.617 712.537 774.089C712.796 769.035 713.05 764.09 713.298 759.261C715.255 720.641 716.841 689.386 717.937 667.761C718.461 656.972 718.869 648.59 719.146 642.881C719.272 640.052 719.368 637.889 719.434 636.409C719.494 634.951 719.498 634.203 719.498 634.203C719.498 634.203 719.424 634.948 719.329 636.403C719.24 637.882 719.11 640.043 718.939 642.87C718.617 648.577 718.145 656.955 717.537 667.739C716.364 689.361 714.668 720.611 712.573 759.223C712.314 764.052 712.049 768.995 711.778 774.049C711.642 776.576 711.505 779.131 711.367 781.713C711.377 784.272 710.563 786.761 708.898 788.715C707.264 790.664 704.874 792 702.302 792.343C701.036 792.514 699.664 792.439 698.307 792.458C696.947 792.459 695.582 792.459 694.21 792.461C688.723 792.466 683.134 792.471 677.448 792.476C654.702 792.501 630.399 792.527 604.823 792.556C579.247 792.591 552.398 792.628 524.564 792.666C510.647 792.688 496.483 792.709 482.109 792.732C478.515 792.738 474.908 792.744 471.289 792.75L465.851 792.759C464 792.815 462.312 792.725 460.661 792.083C457.402 790.878 454.809 787.927 454.176 784.474C453.883 782.79 453.887 780.869 453.739 779.057L453.397 773.541C451.572 744.088 449.791 715.331 448.07 687.556C447.206 673.67 446.359 660.028 445.529 646.667C445.328 643.333 445.13 640.016 444.931 636.715C444.902 633.534 445.959 630.33 447.724 627.711C449.475 625.087 452.25 623.09 455.433 623.33C458.669 623.328 461.885 623.327 465.081 623.326C516.222 623.289 562.28 623.256 600.969 623.228C639.637 623.163 670.934 623.11 692.59 623.074C697.995 623.057 702.799 623.042 706.966 623.028C709.053 622.958 710.956 623.091 712.584 623.757C714.213 624.37 715.507 625.342 716.483 626.352C718.449 628.41 719.09 630.606 719.332 632.009C719.552 633.448 719.442 634.203 719.498 634.203Z"
          fill="#263138"/>
    <path d="M566.29 706.608C566.29 714.301 572.526 720.537 580.219 720.537C587.911 720.537 594.147 714.301 594.147 706.608C594.147 698.916 587.911 692.68 580.219 692.68C572.526 692.68 566.29 698.916 566.29 706.608Z"
          fill="white"/>
    <path d="M566.29 706.608C566.405 706.615 566.352 705.367 566.92 703.256C567.481 701.185 568.891 698.155 572.012 695.825C573.558 694.687 575.497 693.725 577.726 693.345C579.942 692.979 582.435 693.06 584.803 693.971C587.17 694.827 589.428 696.442 591.031 698.673C592.68 700.873 593.606 703.696 593.634 706.606C593.607 709.518 592.681 712.341 591.032 714.542C589.428 716.773 587.171 718.388 584.803 719.245C582.435 720.157 579.941 720.237 577.725 719.871C575.497 719.492 573.557 718.529 572.011 717.39C568.891 715.061 567.481 712.03 566.92 709.96C566.352 707.849 566.405 706.602 566.29 706.608C566.254 706.608 566.235 706.914 566.231 707.502C566.216 708.089 566.288 708.963 566.532 710.057C566.99 712.216 568.343 715.435 571.571 717.968C573.17 719.205 575.205 720.266 577.57 720.708C579.917 721.137 582.578 721.083 585.126 720.135C587.671 719.242 590.106 717.527 591.842 715.138C593.624 712.782 594.636 709.738 594.662 706.606C594.635 703.475 593.624 700.432 591.841 698.077C590.106 695.689 587.67 693.974 585.126 693.081C582.578 692.133 579.918 692.08 577.57 692.508C575.206 692.951 573.17 694.011 571.572 695.248C568.344 697.78 566.99 701 566.533 703.159C566.288 704.253 566.216 705.127 566.231 705.714C566.235 706.302 566.254 706.608 566.29 706.608Z"
          fill="#263138"/>
    <path d="M711.532 650.635C711.248 650.625 710.083 675.571 708.929 706.349C707.774 737.137 707.068 762.096 707.352 762.106C707.635 762.117 708.801 737.176 709.955 706.388C711.109 675.61 711.815 650.646 711.532 650.635Z"
          fill="#263138"/>
    <path d="M782.609 456.943C783.992 455.771 777.935 432.457 777.935 432.457C777.935 432.457 793.977 406.283 794.4 397.84C794.822 389.396 788.067 372.087 788.067 372.087L742.05 360.266C742.05 360.266 727.268 387.708 724.316 397.417C721.364 407.127 729.385 440.056 729.385 440.056L737.181 456.943C737.181 456.943 760.687 475.519 782.609 456.943Z"
          fill="#FFBD9C"/>
    <path d="M794.31 402.888C794.31 402.888 796.307 399.429 799.157 392.669C802.071 385.76 805.648 378.984 799.157 375.12C795.338 372.846 792.224 374.026 792.224 374.026C792.224 374.026 793.22 368.21 789.745 366.027C786.271 363.844 782.922 365.434 782.922 365.434C782.922 365.434 784.019 357.232 779.016 353.752C772.742 349.387 766.272 353.388 766.272 353.388C766.272 353.388 770.232 317.479 770.576 315.575C771.836 308.593 769.254 302.416 762.306 304.139C759.761 304.77 758.347 307.454 755.361 319.147C752.375 330.84 747.577 350.798 747.577 350.798C747.577 350.798 739.497 364.841 735.679 372.458C731.861 380.076 724.315 397.417 723.686 402.012C722.062 413.891 729.019 429.619 729.019 429.619L777.935 432.457C777.935 432.457 792.448 406.296 794.31 402.888Z"
          fill="#FFBD9C"/>
    <path d="M791.259 375.574C791.139 375.499 789.701 377.523 787.473 380.858C786.318 382.617 785.018 384.595 783.604 386.744C782.888 387.854 782.098 389.037 781.501 390.421C780.907 391.78 780.537 393.448 780.925 395.087C781.251 396.694 782.402 398.255 784.015 398.709C785.612 399.206 787.165 398.73 788.396 398.169C789.651 397.59 790.712 396.833 791.664 396.148C792.626 395.457 793.507 394.794 794.3 394.173C795.885 392.934 797.12 391.872 797.948 391.11C798.777 390.349 799.202 389.892 799.157 389.839C799.058 389.723 797.121 391.273 793.866 393.591C792.218 394.692 790.309 396.229 788.008 397.305C786.861 397.809 785.524 398.151 784.321 397.75C783.102 397.395 782.22 396.226 781.927 394.86C781.602 393.489 781.892 392.084 782.429 390.812C782.963 389.537 783.705 388.378 784.403 387.252C785.749 385.058 786.985 383.042 788.086 381.247C790.157 377.813 791.379 375.651 791.259 375.574Z"
          fill="#EB996E"/>
    <path d="M751.141 379.839C751.405 379.852 751.65 376.335 750.628 372.153C749.629 367.963 747.807 364.946 747.577 365.077C747.305 365.209 748.665 368.338 749.63 372.393C750.622 376.441 750.839 379.845 751.141 379.839Z"
          fill="#EB996E"/>
    <path d="M731.752 390.337C736.122 385.883 742.016 383.119 748.114 381.796C754.212 380.472 760.533 380.514 766.748 381.08C771.724 381.533 777.406 382.819 779.672 387.272C782.005 391.854 779.198 397.762 774.784 400.399C770.369 403.036 764.911 403.139 759.789 402.674C754.668 402.209 749.503 401.254 744.422 402.046L731.752 390.337Z"
          fill="#FFBD9C"/>
    <path d="M744.422 402.046C744.435 402.134 745.801 401.916 748.282 401.944C750.768 401.946 754.328 402.399 758.765 402.941C760.987 403.186 763.451 403.391 766.109 403.25C768.749 403.099 771.645 402.606 774.349 401.18C777.066 399.78 779.393 397.246 780.471 394.061C781.027 392.48 781.171 390.699 780.818 388.97C780.412 387.254 779.474 385.628 778.12 384.447C775.39 382.035 771.891 381.263 768.717 380.797C765.489 380.406 762.397 380.247 759.423 380.236C753.486 380.213 748.12 381.091 743.871 382.59C739.609 384.069 736.484 386.05 734.539 387.626C733.557 388.411 732.856 389.088 732.398 389.563C731.949 390.047 731.726 390.312 731.752 390.337C731.82 390.408 732.773 389.399 734.781 387.944C736.774 386.486 739.894 384.641 744.102 383.279C748.298 381.897 753.563 381.109 759.418 381.182C762.339 381.217 765.438 381.4 768.579 381.793C771.669 382.25 774.999 383.04 777.431 385.207C778.645 386.265 779.458 387.695 779.821 389.192C780.13 390.708 780.019 392.298 779.516 393.744C778.544 396.661 776.409 399.031 773.905 400.345C771.383 401.705 768.621 402.217 766.056 402.4C763.476 402.574 761.048 402.416 758.838 402.218C754.416 401.772 750.79 401.422 748.278 401.545C747.023 401.587 746.055 401.712 745.403 401.81C744.753 401.929 744.417 402.012 744.422 402.046Z"
          fill="#EB996E"/>
    <path d="M790.904 376.134C785.757 383.95 781.214 392.541 776.876 400.833C775.614 403.245 774.28 405.796 771.962 407.223C770.106 408.367 765.502 406.293 763.44 405.585L777.572 373.429L790.904 376.134Z"
          fill="#FFBD9C"/>
    <path d="M777.572 373.429C777.513 373.404 777.071 374.253 776.317 375.826C775.508 377.566 774.459 379.826 773.188 382.56C770.57 388.292 766.981 396.306 762.975 405.38L762.754 405.881L763.276 406.067C764.803 406.611 766.44 407.3 768.207 407.743C768.906 407.912 769.618 408.049 770.369 408.066C770.742 408.072 771.129 408.06 771.527 407.943C771.928 407.858 772.325 407.605 772.592 407.419C773.783 406.594 774.695 405.496 775.437 404.375C776.891 402.095 777.916 399.806 779.064 397.683C781.284 393.406 783.319 389.577 785.084 386.392C786.842 383.205 788.329 380.661 789.362 378.904C790.393 377.148 790.968 376.177 790.904 376.134C790.851 376.098 790.162 376.996 789.024 378.692C787.884 380.386 786.298 382.882 784.453 386.033C782.602 389.181 780.496 392.984 778.227 397.241C777.062 399.343 775.983 401.679 774.6 403.817C773.893 404.872 773.056 405.86 772.01 406.579C771.123 407.304 769.749 407.038 768.455 406.746C766.783 406.328 765.194 405.665 763.606 405.104L763.907 405.791C767.883 396.702 771.36 388.638 773.812 382.834C774.967 380.049 775.921 377.748 776.657 375.975C777.305 374.355 777.632 373.456 777.572 373.429Z"
          fill="#EB996E"/>
    <path d="M781.382 363.876C776.84 375.268 772.297 386.66 767.754 398.051C766.79 400.47 765.795 402.938 764.09 404.905C762.384 406.872 759.805 408.279 757.229 407.895C753.68 407.366 751.358 403.599 751.178 400.014C750.997 396.43 752.417 392.984 753.728 389.643C757.805 379.256 761.075 368.552 763.5 357.661L781.382 363.876Z"
          fill="#FFBD9C"/>
    <path d="M763.501 357.661C763.465 357.653 763.349 358.011 763.158 358.701C762.943 359.503 762.676 360.501 762.349 361.721C761.644 364.343 760.619 368.134 759.178 372.764C757.74 377.394 755.884 382.863 753.537 388.826C752.399 391.796 750.926 394.958 750.683 398.602C750.552 400.401 750.867 402.333 751.713 404.031C752.542 405.72 753.91 407.298 755.81 408.043C757.711 408.803 759.863 408.477 761.533 407.579C763.236 406.7 764.585 405.303 765.555 403.789C767.488 400.711 768.427 397.454 769.679 394.503C772.006 388.554 774.11 383.179 775.896 378.613C777.592 374.179 778.983 370.542 780.005 367.868C780.437 366.68 780.79 365.708 781.074 364.928C781.308 364.251 781.415 363.89 781.382 363.877C781.349 363.863 781.177 364.199 780.881 364.851C780.551 365.612 780.138 366.561 779.634 367.72C778.536 370.363 777.043 373.96 775.222 378.345C773.377 382.886 771.203 388.235 768.8 394.152C767.532 397.092 766.533 400.386 764.715 403.237C763.798 404.652 762.581 405.888 761.063 406.671C759.569 407.466 757.764 407.717 756.182 407.086C754.596 406.469 753.378 405.101 752.63 403.58C751.865 402.038 751.574 400.345 751.687 398.66C751.892 395.274 753.29 392.167 754.419 389.169C756.727 383.161 758.52 377.645 759.874 372.973C761.23 368.3 762.152 364.472 762.737 361.816C763.024 360.487 763.236 359.453 763.359 358.747C763.485 358.042 763.535 357.668 763.501 357.661Z"
          fill="#EB996E"/>
    <path d="M812.724 540.493C811.492 535.976 780.285 443.999 780.285 443.999L728.864 437.834L749.9 517.088C749.9 517.088 746.616 537.208 749.9 549.116C753.185 561.024 779.464 593.462 793.015 585.661C806.565 577.859 813.956 545.01 812.724 540.493Z"
          fill="#FFBD9C"/>
    <path d="M749.899 429.702C749.912 429.819 751.062 429.833 752.835 429.317C754.601 428.811 756.95 427.66 759.042 425.749C761.129 423.828 762.478 421.588 763.136 419.873C763.803 418.151 763.888 417.004 763.774 416.981C763.477 416.858 762.394 421.358 758.348 424.992C754.378 428.706 749.803 429.396 749.899 429.702Z"
          fill="#EB996E"/>
    <path fill-rule="evenodd" clip-rule="evenodd"
          d="M1290.6 165.678L1401.61 100.499L1401.22 129.909L1314.39 180.184L1290.6 165.678Z" fill="#38C4BD"
          stroke="#38C4BD" stroke-width="0.755906" stroke-miterlimit="22.9256"/>
    <path fill-rule="evenodd" clip-rule="evenodd"
          d="M1343.78 198.973L1444.83 139.646L1444.47 166.416L1365.43 212.178L1343.78 198.973Z" fill="#38C4BD"
          stroke="#38C4BD" stroke-width="0.755906" stroke-miterlimit="22.9256"/>
    <path fill-rule="evenodd" clip-rule="evenodd"
          d="M1238.39 168.261L1374.25 246.158L1510.69 168.261L1509.86 196.544L1373.75 275.737L1265.08 213.965V245.363L1374.68 306.94L1509.87 228.598L1510.69 258.082L1465.05 284.312L1375.8 336.576L1285.19 285.505L1238.79 257.681L1238.39 168.261Z"
          fill="#38C4BD" stroke="#38C4BD" stroke-width="0.755906" stroke-miterlimit="22.9256"/>
</svg>
